<svg width="48" height="39" viewBox="0 0 48 39" fill="none" xmlns="http://www.w3.org/2000/svg">
<path d="M26.193 35.8373C28.549 32.7888 32.5016 26.586 32.5016 19.3083C32.5016 18.6957 32.4716 18.074 32.4099 17.4082L32.3333 16.584L33.0625 16.1915C38.6044 13.2098 44.7955 13.0581 45.9797 13.0581C46.1831 13.0581 46.2923 13.0623 46.2923 13.0623L47.459 13.1048L47.4982 14.2723C47.5123 14.719 47.7665 25.2853 41.247 31.8039C37.1343 35.9183 31.4082 37.3584 27.3297 37.8426L24.3721 38.1942L26.193 35.8373Z" fill="#FF9F99"/>
<path d="M23.4105 37.9366L23.8056 36.7507L23.3789 37.9257L22.9405 37.7757L22.7263 37.5424C21.4362 36.1332 15.001 28.6362 15.001 19.3084C15.001 9.25626 22.528 1.27759 22.8488 0.9434L23.7514 0L24.6539 0.9434C24.9747 1.27759 32.5017 9.25626 32.5017 19.3084C32.5017 28.9804 25.5165 36.7491 24.7198 37.6033L24.1723 38.1899L23.4105 37.9366Z" fill="#FFB7B2"/>
<path d="M13.7033 15.8289C12.3624 15.1739 10.9381 14.6322 9.46811 14.2197L8.43311 13.9289L8.56563 12.8621C9.03567 9.07112 10.0557 6.37345 10.099 6.26016L10.5698 5.02759L11.7749 5.56511C11.8649 5.60515 14.0116 6.57013 16.6418 8.4752L17.451 9.06184L17.0568 9.98024C16.3526 11.6228 15.8209 13.2979 15.4751 14.9613L15.1476 16.5364L13.7033 15.8289Z" fill="#FF877F"/>
<path d="M32.0232 14.9472C31.6782 13.2922 31.1473 11.6229 30.4456 9.98449L30.0522 9.06531L30.8615 8.47944C33.4891 6.57604 35.6341 5.60686 35.7242 5.56594L36.9309 5.02588L37.4026 6.26089C37.4459 6.37428 38.4634 9.06931 38.9343 12.8586L39.0668 13.9262L38.0301 14.2162C36.5376 14.6337 35.1125 15.1721 33.7941 15.8154L32.3499 16.5213L32.0232 14.9472Z" fill="#FF877F"/>
<path d="M20.1729 37.8425C16.0935 37.3583 10.3683 35.9174 6.25562 31.8038C-0.263804 25.2853 -0.00969223 14.719 0.0045662 14.2723L0.0404075 13.1048L1.21048 13.0623C1.21048 13.0623 1.31966 13.0581 1.52299 13.0581C2.70468 13.0581 8.88161 13.2098 14.4394 16.2033L15.1669 16.595L15.0911 17.4184C15.0311 18.0783 15.001 18.6976 15.001 19.3085C15.001 26.5863 18.9537 32.789 21.3096 35.8375L23.1313 38.1942L20.1729 37.8425Z" fill="#FF9F99"/>
</svg>
