<svg width="50" height="50" viewBox="0 0 50 50" fill="none" xmlns="http://www.w3.org/2000/svg">
<g clip-path="url(#clip0_207_95)">
<path fill-rule="evenodd" clip-rule="evenodd" d="M44.7219 23.1282C43.2633 20.7235 40.7946 18.161 36.9891 18.1868C31.6321 18.2227 29.5414 22.4813 27.7547 26.0485C27.1977 27.1595 26.3063 28.8751 25.0508 29.1188C23.5602 29.4079 22.7282 28.5516 21.7469 28.1454C23.7977 26.4876 25.6368 24.5516 25.9524 21.4813C26.4602 16.5337 23.4039 13.4227 19.3453 13.0954C15.418 12.7782 12.2571 13.854 9.73441 15.2665C9.05472 15.647 7.67659 16.4774 7.63206 17.1384C7.60003 17.6157 9.32894 19.9415 10.711 23.2032C12.5024 22.0524 15.0383 19.9485 17.9188 19.6845C22.9203 19.2259 23.3157 24.086 18.3688 25.0009C16.318 25.379 14.5024 24.8485 12.8125 24.5516C13.7625 26.7384 12.3203 30.8532 14.0141 32.3391C15.6055 33.7352 17.836 32.0579 19.6446 32.1149C22.2766 32.1977 24.1321 35.0923 22.8735 37.9563C21.2547 41.6384 14.9969 42.5626 11.2368 40.2024C4.05003 35.6915 5.343 27.1727 4.02816 27.1727C2.293 27.1712 1.48284 48.4376 16.9422 48.4376C23.1297 48.4376 28.3375 43.7868 27.8297 37.2055C27.6821 35.2907 26.9524 33.5923 26.4782 32.1134C27.7508 32.2509 29.0008 32.1399 30.1571 31.9641C28.5703 34.686 29.6078 39.8016 30.9828 41.8477C33.0461 44.9165 37.9664 45.9735 41.5696 43.5704C44.5602 41.5759 46.5453 38.2977 46.8266 33.686C47.0828 29.4438 46.3422 25.7985 44.7219 23.1282M36.6883 37.5055C33.1297 37.8829 30.8719 36.0173 30.6078 31.8899C33.5875 30.6641 34.5719 25.4821 38.1899 23.3532C41.3211 21.511 43.0891 25.2532 43.2953 27.9212C43.6828 32.9329 40.9578 37.0516 36.6883 37.5055" fill="#C54747"/>
<path fill-rule="evenodd" clip-rule="evenodd" d="M30.6445 10.5484C30.6445 10.5484 34.9672 7.57344 34.9609 6.01797C34.9547 4.47578 30.6445 1.5625 30.6445 1.5625C30.6445 1.5625 26.3336 4.4625 26.3281 6.01797C26.3211 7.58672 30.6445 10.5484 30.6445 10.5484Z" fill="#C54747"/>
<path fill-rule="evenodd" clip-rule="evenodd" d="M29.5561 16.7633C35.7053 18.1469 43.5209 13.3555 43.5209 11.7461C43.5209 9.69453 39.8264 7.74531 39.1662 6.87969C37.1842 9.43047 33.6123 12.675 29.0295 11.4469C24.4506 10.2203 22.5732 4.18359 22.5732 4.18359C21.9553 6.13437 21.9631 8.49531 22.6482 10.3234C23.6756 13.0641 26.6264 16.1039 29.5561 16.7633Z" fill="#C54747"/>
</g>
<defs>
<clipPath id="clip0_207_95">
<rect width="50" height="50" fill="white"/>
</clipPath>
</defs>
</svg>
