<svg width="50" height="50" viewBox="0 0 50 50" fill="none" xmlns="http://www.w3.org/2000/svg">
<g clip-path="url(#clip0_209_196)">
<path d="M25.0001 50.0001C38.8072 50.0001 50.0001 38.8072 50.0001 25.0001C50.0001 11.1929 38.8072 0 25.0001 0C11.1929 0 0 11.1929 0 25.0001C0 38.8072 11.1929 50.0001 25.0001 50.0001Z" fill="#FFC10E"/>
<path d="M17.4009 20.0677C19.5694 20.0677 21.3272 18.3098 21.3272 16.1414C21.3272 13.973 19.5694 12.2151 17.4009 12.2151C15.2325 12.2151 13.4746 13.973 13.4746 16.1414C13.4746 18.3098 15.2325 20.0677 17.4009 20.0677Z" fill="#333333"/>
<path d="M32.2476 20.0677C34.416 20.0677 36.1739 18.3098 36.1739 16.1414C36.1739 13.973 34.416 12.2151 32.2476 12.2151C30.0792 12.2151 28.3213 13.973 28.3213 16.1414C28.3213 18.3098 30.0792 20.0677 32.2476 20.0677Z" fill="#333333"/>
<path d="M24.9984 38.2629C20.6351 38.1788 16.7282 36.4699 13.6946 33.3347C12.8083 32.4184 11.414 33.8159 12.2991 34.7302C15.6877 38.2325 20.1291 40.1431 24.9984 40.2367C26.2722 40.261 26.2695 38.2869 24.9984 38.2629Z" fill="#333333"/>
<path d="M12.6918 11.1772C14.7982 9.40916 17.2185 8.26902 19.9068 7.71208C21.1526 7.45392 20.6237 5.55122 19.3817 5.80853C16.3515 6.43658 13.6617 7.79574 11.2963 9.78179C10.3202 10.6009 11.7243 11.99 12.6918 11.1772Z" fill="#333333"/>
<path d="M30.709 7.19013C33.3329 8.0124 35.6063 9.41893 37.5193 11.3927C38.4064 12.3082 39.8007 10.9111 38.9148 9.99729C36.7689 7.78304 34.1737 6.20802 31.234 5.28626C30.0157 4.90488 29.4986 6.81043 30.709 7.19013Z" fill="#333333"/>
</g>
<defs>
<clipPath id="clip0_209_196">
<rect width="50" height="50" fill="white"/>
</clipPath>
</defs>
</svg>
